# Blender v2.80 (sub 68) OBJ File: 'Character_Base_Assets2.blend'
# www.blender.org
mtllib Sword.mtl
o Sword_Cube.002
v 0.047624 0.138770 0.382766
v 0.045704 0.079172 0.382679
v -0.011908 0.140691 0.379968
v -0.013828 0.081093 0.379881
v 0.061672 0.138752 0.083863
v 0.058451 0.138756 0.152395
v 0.056531 0.079159 0.152308
v 0.059752 0.079155 0.083777
v -0.003001 0.081080 0.149510
v 0.000220 0.081076 0.080979
v -0.001081 0.140678 0.149597
v 0.002140 0.140674 0.081065
v 0.162221 0.135507 0.088589
v 0.159001 0.135511 0.157120
v 0.157081 0.075913 0.157034
v 0.160302 0.075909 0.088502
v -0.103551 0.084326 0.144784
v -0.100330 0.084322 0.076253
v -0.101631 0.143923 0.144871
v -0.098410 0.143920 0.076340
v 0.062092 0.155488 0.454668
v 0.059060 0.061348 0.454531
v -0.034976 0.064383 0.450112
v -0.031944 0.158523 0.450249
v 0.063574 0.058309 0.419132
v -0.036339 0.061534 0.414436
v -0.033118 0.161558 0.414582
v 0.066796 0.158333 0.419278
v 0.015938 0.080133 0.381280
v 0.017858 0.139731 0.381367
v 0.031906 0.139713 0.082464
v 0.028685 0.139717 0.150996
v 0.029986 0.080115 0.082378
v 0.026765 0.080119 0.150909
v 0.010823 0.062867 0.478267
v 0.013855 0.157007 0.478404
v 0.016839 0.159945 0.416930
v 0.013617 0.059922 0.416784
v 0.060589 0.079154 0.065978
v 0.001057 0.081075 0.063180
v 0.002976 0.140673 0.063267
v 0.062508 0.138751 0.066065
v 0.030922 0.080114 0.062455
v 0.032842 0.139712 0.062541
v 0.098057 0.102856 -0.805443
v 0.098456 0.115223 -0.805425
v 0.057623 0.102906 0.054905
v 0.077482 0.103674 -0.912000
v 0.006569 0.104554 0.052506
v 0.047003 0.104504 -0.807843
v 0.047401 0.116870 -0.807825
v 0.006967 0.116920 0.052524
v 0.077880 0.116040 -0.911982
v 0.032221 0.103729 0.051036
v 0.032620 0.116096 0.051054
v 0.058021 0.115272 0.054923
vt 0.589801 0.000000
vt 0.625000 0.000000
vt 0.625000 0.250000
vt 0.589801 0.250000
vt 0.589801 0.375000
vt 0.625000 0.375000
vt 0.625000 0.500000
vt 0.589801 0.500000
vt 0.625000 0.750000
vt 0.589801 0.750000
vt 0.589801 0.875000
vt 0.625000 0.875000
vt 0.625000 1.000000
vt 0.589801 1.000000
vt 0.625000 0.375000
vt 0.625000 0.250000
vt 0.625000 0.250000
vt 0.625000 0.375000
vt 0.503137 0.875000
vt 0.506468 0.875000
vt 0.506468 1.000000
vt 0.503137 1.000000
vt 0.503137 0.500000
vt 0.506468 0.500000
vt 0.506468 0.750000
vt 0.503137 0.750000
vt 0.589801 0.750000
vt 0.589801 0.500000
vt 0.503137 0.375000
vt 0.506468 0.375000
vt 0.503137 0.000000
vt 0.506468 0.000000
vt 0.506468 0.250000
vt 0.503137 0.250000
vt 0.589801 0.250000
vt 0.589801 0.000000
vt 0.506468 0.500000
vt 0.506468 0.750000
vt 0.506468 0.000000
vt 0.506468 0.250000
vt 0.589801 1.000000
vt 0.506468 1.000000
vt 0.750000 0.500000
vt 0.875000 0.500000
vt 0.875000 0.750000
vt 0.750000 0.750000
vt 0.625000 0.750000
vt 0.625000 0.500000
vt 0.625000 0.500000
vt 0.625000 0.750000
vt 0.625000 0.000000
vt 0.625000 0.000000
vt 0.625000 0.875000
vt 0.625000 0.875000
vt 0.625000 1.000000
vt 0.625000 1.000000
vt 0.503137 0.875000
vt 0.503137 0.750000
vt 0.503137 0.250000
vt 0.503137 0.000000
vt 0.503137 0.500000
vt 0.503137 0.375000
vt 0.503137 1.000000
vt 0.250000 0.500000
vt 0.375000 0.500000
vt 0.375000 0.750000
vt 0.250000 0.750000
vt 0.125000 0.500000
vt 0.125000 0.750000
vt 0.375000 0.875000
vt 0.375000 0.250000
vt 0.375000 0.375000
vt 0.375000 0.000000
vt 0.375000 1.000000
vn 0.9984 -0.0322 0.0469
vn -0.0322 -0.9995 -0.0015
vn -0.9984 0.0322 -0.0469
vn 0.0322 0.9995 0.0015
vn -0.0187 -0.9980 0.0602
vn -0.0469 0.0001 0.9989
vn 0.0469 -0.0001 -0.9989
vn 0.4411 -0.0155 0.8973
vn -0.9988 0.0321 0.0356
vn 0.9911 -0.0321 0.1291
vn 0.0130 0.9980 0.0616
vn 0.0512 0.8689 -0.4924
vn 0.8911 -0.0280 -0.4529
vn -0.8447 0.0280 -0.5345
vn -0.0048 -0.8689 -0.4949
vn 0.0455 0.9970 0.0631
vn -0.5233 0.0156 0.8520
vn -0.0513 -0.9970 0.0587
vn -0.0222 0.4233 -0.9057
vn 0.9475 -0.0301 -0.3182
vn -0.9135 0.0300 -0.4057
vn 0.1070 -0.4234 -0.8996
vn -0.0493 -0.4183 -0.9069
vn 0.1342 0.4182 -0.8984
vn -0.9592 0.0313 -0.2809
vn 0.9813 -0.0313 -0.1897
usemtl None
s off
f 6/1/1 1/2/1 2/3/1 7/4/1
f 34/5/2 29/6/2 4/7/2 9/8/2
f 9/8/3 4/7/3 3/9/3 11/10/3
f 32/11/4 30/12/4 1/13/4 6/14/4
f 38/15/5 25/16/5 22/17/5 35/18/5
f 44/19/4 31/20/4 5/21/4 42/22/4
f 31/20/4 32/11/4 6/14/4 5/21/4
f 40/23/3 10/24/3 12/25/3 41/26/3
f 9/8/6 11/10/6 19/27/6 17/28/6
f 43/29/2 33/30/2 10/24/2 40/23/2
f 33/30/2 34/5/2 9/8/2 10/24/2
f 42/31/1 5/32/1 8/33/1 39/34/1
f 6/1/6 7/4/6 15/35/6 14/36/6
f 18/37/3 17/28/3 19/27/3 20/38/3
f 13/39/1 14/36/1 15/35/1 16/40/1
f 11/10/4 12/25/4 20/38/4 19/27/4
f 10/24/2 9/8/2 17/28/2 18/37/2
f 8/33/7 5/32/7 13/39/7 16/40/7
f 7/4/2 8/33/2 16/40/2 15/35/2
f 5/21/4 6/14/4 14/41/4 13/42/4
f 12/25/7 10/24/7 18/37/7 20/38/7
f 35/43/8 22/44/8 21/45/8 36/46/8
f 27/47/9 26/48/9 23/49/9 24/50/9
f 25/16/10 28/51/10 21/52/10 22/17/10
f 37/53/11 27/47/11 24/50/11 36/54/11
f 30/12/12 3/9/12 27/47/12 37/53/12
f 2/3/13 1/2/13 28/51/13 25/16/13
f 3/9/14 4/7/14 26/48/14 27/47/14
f 29/6/15 2/3/15 25/16/15 38/15/15
f 4/7/15 29/6/15 38/15/15 26/48/15
f 1/13/12 30/12/12 37/53/12 28/55/12
f 28/55/16 37/53/16 36/54/16 21/56/16
f 23/49/17 35/43/17 36/46/17 24/50/17
f 8/33/2 7/4/2 34/5/2 33/30/2
f 39/34/2 8/33/2 33/30/2 43/29/2
f 12/25/4 11/10/4 32/11/4 31/20/4
f 41/26/4 12/25/4 31/20/4 44/19/4
f 26/48/18 38/15/18 35/18/18 23/49/18
f 11/10/4 3/9/4 30/12/4 32/11/4
f 7/4/2 2/3/2 29/6/2 34/5/2
f 41/26/19 44/19/19 55/57/19 52/58/19
f 42/31/20 39/34/20 47/59/20 56/60/20
f 40/23/21 41/26/21 52/58/21 49/61/21
f 39/34/22 43/29/22 54/62/22 47/59/22
f 43/29/23 40/23/23 49/61/23 54/62/23
f 44/19/24 42/22/24 56/63/24 55/57/24
f 48/64/25 50/65/25 51/66/25 53/67/25
f 45/68/26 48/64/26 53/67/26 46/69/26
f 51/66/4 52/58/4 55/57/4 53/70/4
f 45/71/2 47/59/2 54/62/2 48/72/2
f 46/73/1 56/60/1 47/59/1 45/71/1
f 48/72/2 54/62/2 49/61/2 50/65/2
f 50/65/3 49/61/3 52/58/3 51/66/3
f 53/70/4 55/57/4 56/63/4 46/74/4
