# File produced by Open Asset Import Library (http://www.assimp.sf.net)
# (assimp v3.1.193236683)

mtllib Rock_2.mtl

# 36 vertex positions
v  0.298494 0.600615 -0.87456
v  0.298494 2.98023e-08 -0.87456
v  -0.298494 2.98023e-08 -0.997725
v  -0.532671 0.511377 -0.997725
v  -0.850871 2.98023e-08 -0.859242
v  -0.850871 0.272282 -0.859242
v  -1.32205 2.98023e-08 -0.265576
v  -1.32205 0.272282 -0.265576
v  -0.967729 2.98023e-08 0.395037
v  -1.20191 0.511377 0.278596
v  -0.298494 2.98023e-08 0.87456
v  -0.298494 0.511377 0.87456
v  -0.0702398 0.511377 0.902169
v  -0.0702398 2.98023e-08 0.902169
v  0.529607 2.98023e-08 0.589338
v  0.529607 0.511377 0.589338
v  0.659484 2.98023e-08 -0.0466743
v  0.659484 0.511377 -0.0466743
v  0.409633 2.98023e-08 -0.776681
v  0.409633 0.511377 -0.70769
v  0.284839 0.799157 0.437296
v  0.484016 0.799157 -0.0742836
v  0.298494 0.799157 -0.7353
v  -0.176682 0.799157 0.579029
v  -0.640754 0.799157 0.322468
v  -0.122783 0.799157 -0.666142
v  0.572606 2.98023e-08 -0.0742836
v  0.507704 2.98023e-08 0.540622
v  0.55343 0.713786 -0.0742836
v  0.298494 0.680032 -0.776333
v  -0.176682 0.626489 0.741316
v  0.384578 0.626489 0.540622
v  -0.245949 0.626489 -0.997725
v  -0.915185 0.713816 0.328253
v  0.419912 0.511377 0.540622
v  0.599705 0.656872 -0.0742836

# 49 UV coordinates
vt 0.121496 0.916226 0
vt 0.0627887 0.923612 0
vt 0.0477471 0.867476 0
vt 0.0967808 0.835454 0
vt 0.0403088 0.79194 0
vt 0.0781304 0.810691 0
vt 0.0963926 0.771125 0
vt 0.138244 0.772399 0
vt 0.151591 0.731453 0
vt 0.193565 0.753143 0
vt 0.191643 0.685124 0
vt 0.236576 0.692218 0
vt 0.233499 0.650744 0
vt 0.185846 0.666714 0
vt 0.161891 0.609655 0
vt 0.215069 0.596813 0
vt 0.266236 0.93266 0
vt 0.266236 0.982442 0
vt 0.204321 0.982442 0
vt 0.204321 0.93266 0
vt 0.133255 0.982442 0
vt 0.139971 0.93266 0
vt 0.00175363 0.689205 0
vt 0.246125 0.889191 0
vt 0.202254 0.903111 0
vt 0.140655 0.902764 0
vt 0.242311 0.832378 0
vt 0.210772 0.799645 0
vt 0.140407 0.864466 0
vt 0.0916498 0.604405 0
vt 0.15151 0.610723 0
vt 0.0137438 0.631089 0
vt 0.201633 0.912956 0
vt 0.133485 0.910189 0
vt 0.255748 0.828777 0
vt 0.251583 0.879702 0
vt 0.261493 0.921454 0
vt 0.1091 0.859128 0
vt 0.205162 0.776793 0
vt 0.225269 0.599313 0
vt 0.250799 0.661837 0
vt 0.0943375 0.595947 0
vt 0.201633 0.918496 0
vt 0.261494 0.93266 0
vt 0.0232722 0.62027 0
vt 0.123727 0.982442 0
vt 0.264078 0.815735 0
vt 0.257725 0.64773 0
vt 0.237744 0.596876 0

# 79 vertex normals
vn 0.176342 0.0528691 -0.982908
vn 0.167722 0.0353211 -0.985201
vn 0.0724434 0.00981686 -0.997324
vn 0.0201797 -0.00168966 -0.999795
vn -0.281076 -0.0839927 -0.956003
vn -0.281076 -0.0839927 -0.956003
vn -0.783282 0 -0.621666
vn -0.89507 -0.208934 0.39395
vn -0.89507 -0.208934 0.39395
vn -0.89507 -0.208934 0.39395
vn -0.564141 -0.0352517 0.824926
vn -0.564141 -0.0352517 0.824926
vn -0.486556 -0.0289188 0.873171
vn -0.486556 -0.0289188 0.873171
vn 0.462412 0 0.886665
vn 0.462412 0 0.886665
vn 0.462412 0 0.886665
vn 0.97978 0 0.200077
vn 0.936257 0.0821422 -0.341578
vn 0.940872 0.0227996 -0.337994
vn 0.911693 0.0268636 -0.409994
vn 0.911925 0.108777 -0.395677
vn 0 -1 1.18595e-14
vn 0 -1 2.32808e-15
vn 0 -1 2.53895e-15
vn -0.540074 0.774493 -0.329364
vn -0.483101 0.827776 -0.285309
vn -0.476632 0.833202 -0.280349
vn -0.540074 0.774493 -0.329364
vn 2.84229e-07 1 2.33496e-07
vn 2.84229e-07 1 2.33496e-07
vn 8.15744e-08 1 6.70141e-08
vn 8.8368e-08 1 7.25951e-08
vn -0.182989 0.976973 -0.109726
vn -0.158228 0.982834 -0.0948785
vn 0 -1 9.07325e-15
vn 0 -1 8.71431e-15
vn 0 -1 2.7972e-15
vn 0 -1 2.11314e-15
vn 0.885234 0.359667 -0.294959
vn 0.845363 0.433954 -0.311522
vn 0.835318 0.450574 -0.315003
vn 0.885234 0.359667 -0.294959
vn 0.245371 0.634561 0.732888
vn 0.313328 0.488105 0.814604
vn 0.306528 0.504587 0.807114
vn 0.245371 0.634561 0.732888
vn 0.743218 0.603147 0.289553
vn 0.803118 0.511182 0.306094
vn 0.794934 0.525095 0.303899
vn 0.743218 0.603147 0.289553
vn 0.0557464 0.777068 -0.626944
vn 0.0557464 0.777068 -0.626944
vn 0.0557464 0.777068 -0.626944
vn 0.0557464 0.777068 -0.626944
vn -0.427114 0.868938 -0.250042
vn -0.429657 0.867358 -0.251166
vn -0.295814 0.722046 0.625415
vn -0.360377 0.66305 0.65612
vn -0.346447 0.67651 0.649853
vn -0.295814 0.722046 0.625415
vn 0 -1 0
vn 5.70109e-08 1 -2.3342e-07
vn 5.70109e-08 1 -2.3342e-07
vn 5.70109e-08 1 -2.3342e-07
vn -0.120085 3.96056e-09 0.992764
vn 0.570965 0.787244 0.23291
vn 0.734788 0.615739 0.284522
vn 0.708596 0.649183 0.276501
vn 0.570965 0.787244 0.23291
vn 0.771765 0.0393776 -0.634687
vn 0.829534 0.222495 -0.51222
vn 0.851043 0.401764 -0.3381
vn 0.224974 0.15421 -0.962084
vn 0.224974 0.15421 -0.962084
vn -0.37153 0.651966 0.660989
vn -0.37153 0.651966 0.660989
vn 0.359247 0.362715 0.859872
vn 0.359247 0.362715 0.859872

# Mesh 'Rock2_Rock2' with 68 faces
g Rock2_Rock2
usemtl Black
f  1/1/1 2/2/2 3/3/3
f  3/3/3 4/4/4 1/1/1
f  4/4/4 3/3/3 5/5/5
f  5/5/5 6/6/6 4/4/4
f  6/6/7 5/5/7 7/7/7
f  7/7/7 8/8/7 6/6/7
f  8/8/8 7/7/9 9/9/9
f  9/9/9 10/10/10 8/8/8
f  10/10/11 9/9/12 11/11/13
f  11/11/13 12/12/14 10/10/11
f  13/13/15 14/14/16 15/15/16
f  15/15/16 16/16/17 13/13/15
f  16/17/18 15/18/18 17/19/18
f  17/19/18 18/20/18 16/17/18
f  18/20/19 17/19/20 19/21/21
f  19/21/21 20/22/22 18/20/19
f  5/5/23 3/23/24 9/9/25
f  9/9/25 7/7/23 5/5/23
f  8/8/26 10/10/27 4/4/28
f  4/4/28 6/6/29 8/8/26
f  21/24/30 22/25/31 23/26/32
f  23/26/32 24/27/33 21/24/30
f  25/28/34 24/27/33 23/26/32
f  23/26/32 26/29/35 25/28/34
f  27/30/36 28/31/37 11/11/38
f  11/11/38 2/32/39 27/30/36
f  3/23/24 2/32/39 11/11/38
f  11/11/38 9/9/25 3/23/24
f  22/25/40 29/33/41 30/34/42
f  30/34/42 23/26/43 22/25/40
f  24/27/44 31/35/45 32/36/46
f  32/36/46 21/24/47 24/27/44
f  21/24/48 32/37/49 29/33/50
f  29/33/50 22/25/51 21/24/48
f  23/26/52 30/34/53 33/38/54
f  33/38/54 26/29/55 23/26/52
f  26/29/35 33/38/56 34/39/57
f  34/39/57 25/28/34 26/29/35
f  25/28/58 34/39/59 31/35/60
f  31/35/60 24/27/61 25/28/58
f  14/14/62 11/11/38 28/31/37
f  28/31/37 15/15/62 14/14/62
f  16/16/63 35/40/64 12/41/65
f  12/41/65 13/13/65 16/16/63
f  13/13/66 12/12/14 11/11/13
f  11/11/13 14/14/66 13/13/66
f  15/15/62 28/31/37 27/30/36
f  27/30/36 17/42/62 15/15/62
f  18/20/67 36/43/68 35/44/69
f  35/44/69 16/17/70 18/20/67
f  17/42/62 27/30/36 2/32/39
f  2/32/39 19/45/62 17/42/62
f  19/21/21 2/46/71 1/1/72
f  1/1/72 20/22/22 19/21/21
f  20/22/22 1/1/72 36/43/73
f  36/43/73 18/20/19 20/22/22
f  29/33/41 36/43/73 1/1/72
f  1/1/72 30/34/42 29/33/41
f  30/34/74 1/1/1 4/4/4
f  4/4/4 33/38/75 30/34/74
f  33/38/56 4/4/28 10/10/27
f  10/10/27 34/39/57 33/38/56
f  34/39/59 10/10/76 12/47/77
f  12/47/77 31/35/60 34/39/59
f  31/48/45 12/41/78 35/40/79
f  35/40/79 32/49/46 31/48/45
f  32/37/49 35/44/69 36/43/68
f  36/43/68 29/33/50 32/37/49

